<svg width="331" height="839" viewBox="0 0 331 839" fill="none" xmlns="http://www.w3.org/2000/svg">
<path d="M317.373 0.567383C317.373 7.90319 323.17 13.8842 330.433 14.1816V825.29C323.358 825.58 317.676 831.262 317.386 838.337H13.6143C13.3244 831.262 7.64186 825.58 0.567383 825.29V14.1816C7.8301 13.8842 13.627 7.90317 13.627 0.567383H317.373Z" fill="#060A0B"/>
<path d="M317.373 0.567383C317.373 7.90319 323.17 13.8842 330.433 14.1816V825.29C323.358 825.58 317.676 831.262 317.386 838.337H13.6143C13.3244 831.262 7.64186 825.58 0.567383 825.29V14.1816C7.8301 13.8842 13.627 7.90317 13.627 0.567383H317.373Z" stroke="#9A5A11" stroke-width="1.13556"/>
<path d="M317.373 0.567383C317.373 7.90319 323.17 13.8842 330.433 14.1816V825.29C323.358 825.58 317.676 831.262 317.386 838.337H13.6143C13.3244 831.262 7.64186 825.58 0.567383 825.29V14.1816C7.8301 13.8842 13.627 7.90317 13.627 0.567383H317.373Z" stroke="url(#paint0_radial_369_176)" stroke-width="1.13556"/>
<path d="M317.373 0.567383C317.373 7.90319 323.17 13.8842 330.433 14.1816V825.29C323.358 825.58 317.676 831.262 317.386 838.337H13.6143C13.3244 831.262 7.64186 825.58 0.567383 825.29V14.1816C7.8301 13.8842 13.627 7.90317 13.627 0.567383H317.373Z" stroke="url(#paint1_radial_369_176)" stroke-width="1.13556"/>
<path d="M317.373 0.567383C317.373 7.90319 323.17 13.8842 330.433 14.1816V825.29C323.358 825.58 317.676 831.262 317.386 838.337H13.6143C13.3244 831.262 7.64186 825.58 0.567383 825.29V14.1816C7.8301 13.8842 13.627 7.90317 13.627 0.567383H317.373Z" stroke="url(#paint2_radial_369_176)" stroke-width="1.13556"/>
<path d="M317.373 0.567383C317.373 7.90319 323.17 13.8842 330.433 14.1816V825.29C323.358 825.58 317.676 831.262 317.386 838.337H13.6143C13.3244 831.262 7.64186 825.58 0.567383 825.29V14.1816C7.8301 13.8842 13.627 7.90317 13.627 0.567383H317.373Z" stroke="url(#paint3_radial_369_176)" stroke-width="1.13556"/>
<path d="M314.5 3.69092V3.98291C314.5 11.1188 320.209 16.9196 327.309 17.0708V822.39C320.303 822.54 314.652 828.209 314.503 835.214H16.4961C16.3472 828.209 10.6965 822.54 3.69043 822.39V17.0708C10.7901 16.9196 16.4988 11.1188 16.499 3.98291V3.69092H314.5Z" fill="#090A0E"/>
<path d="M314.5 3.69092V3.98291C314.5 11.1188 320.209 16.9196 327.309 17.0708V822.39C320.303 822.54 314.652 828.209 314.503 835.214H16.4961C16.3472 828.209 10.6965 822.54 3.69043 822.39V17.0708C10.7901 16.9196 16.4988 11.1188 16.499 3.98291V3.69092H314.5Z" stroke="#9A5A11" stroke-width="0.567782"/>
<path d="M314.5 3.69092V3.98291C314.5 11.1188 320.209 16.9196 327.309 17.0708V822.39C320.303 822.54 314.652 828.209 314.503 835.214H16.4961C16.3472 828.209 10.6965 822.54 3.69043 822.39V17.0708C10.7901 16.9196 16.4988 11.1188 16.499 3.98291V3.69092H314.5Z" stroke="url(#paint4_radial_369_176)" stroke-width="0.567782"/>
<path d="M314.5 3.69092V3.98291C314.5 11.1188 320.209 16.9196 327.309 17.0708V822.39C320.303 822.54 314.652 828.209 314.503 835.214H16.4961C16.3472 828.209 10.6965 822.54 3.69043 822.39V17.0708C10.7901 16.9196 16.4988 11.1188 16.499 3.98291V3.69092H314.5Z" stroke="url(#paint5_radial_369_176)" stroke-width="0.567782"/>
<path d="M314.5 3.69092V3.98291C314.5 11.1188 320.209 16.9196 327.309 17.0708V822.39C320.303 822.54 314.652 828.209 314.503 835.214H16.4961C16.3472 828.209 10.6965 822.54 3.69043 822.39V17.0708C10.7901 16.9196 16.4988 11.1188 16.499 3.98291V3.69092H314.5Z" stroke="url(#paint6_radial_369_176)" stroke-width="0.567782"/>
<path d="M314.5 3.69092V3.98291C314.5 11.1188 320.209 16.9196 327.309 17.0708V822.39C320.303 822.54 314.652 828.209 314.503 835.214H16.4961C16.3472 828.209 10.6965 822.54 3.69043 822.39V17.0708C10.7901 16.9196 16.4988 11.1188 16.499 3.98291V3.69092H314.5Z" stroke="url(#paint7_radial_369_176)" stroke-width="0.567782"/>
<defs>
<radialGradient id="paint0_radial_369_176" cx="0" cy="0" r="1" gradientUnits="userSpaceOnUse" gradientTransform="translate(-4.5977e-06 363.405) scale(53 409.856)">
<stop stop-color="#ECB233"/>
<stop offset="1" stop-color="#BA8A46" stop-opacity="0"/>
</radialGradient>
<radialGradient id="paint1_radial_369_176" cx="0" cy="0" r="1" gradientUnits="userSpaceOnUse" gradientTransform="translate(331 383.905) rotate(180) scale(67.5 361.875)">
<stop stop-color="#ECB233"/>
<stop offset="1" stop-color="#BA8A46" stop-opacity="0"/>
</radialGradient>
<radialGradient id="paint2_radial_369_176" cx="0" cy="0" r="1" gradientUnits="userSpaceOnUse" gradientTransform="translate(178 838.905) rotate(-90) scale(47.5 141.817)">
<stop stop-color="#ECB233"/>
<stop offset="1" stop-color="#BA8A46" stop-opacity="0"/>
</radialGradient>
<radialGradient id="paint3_radial_369_176" cx="0" cy="0" r="1" gradientUnits="userSpaceOnUse" gradientTransform="translate(178.284 1.45411e-06) rotate(89.9998) scale(29.8086 159.807)">
<stop stop-color="#ECB233"/>
<stop offset="1" stop-color="#BA8A46" stop-opacity="0"/>
</radialGradient>
<radialGradient id="paint4_radial_369_176" cx="0" cy="0" r="1" gradientUnits="userSpaceOnUse" gradientTransform="translate(2.99999 396.405) rotate(-90) scale(265 150.077)">
<stop stop-color="#ECB233"/>
<stop offset="1" stop-color="#BA8A46" stop-opacity="0"/>
</radialGradient>
<radialGradient id="paint5_radial_369_176" cx="0" cy="0" r="1" gradientUnits="userSpaceOnUse" gradientTransform="translate(328 373.905) rotate(90) scale(309 163)">
<stop stop-color="#ECB233"/>
<stop offset="1" stop-color="#BA8A46" stop-opacity="0"/>
</radialGradient>
<radialGradient id="paint6_radial_369_176" cx="0" cy="0" r="1" gradientUnits="userSpaceOnUse" gradientTransform="translate(178.278 835.905) rotate(-92.2179) scale(33.0247 176.799)">
<stop stop-color="#ECB233"/>
<stop offset="1" stop-color="#BA8A46" stop-opacity="0"/>
</radialGradient>
<radialGradient id="paint7_radial_369_176" cx="0" cy="0" r="1" gradientUnits="userSpaceOnUse" gradientTransform="translate(178.278 3.40674) rotate(89.9998) scale(29.2795 156.749)">
<stop stop-color="#ECB233"/>
<stop offset="1" stop-color="#BA8A46" stop-opacity="0"/>
</radialGradient>
</defs>
</svg>
