<svg width="110" height="27" viewBox="0 0 110 27" fill="none" xmlns="http://www.w3.org/2000/svg">
<g filter="url(#filter0_ii_214_79)">
<path fill-rule="evenodd" clip-rule="evenodd" d="M110 5.26733V21.5842L105.485 26.099H5.26733L0 21.5842V5.26733L5.26733 0H105.485L110 5.26733ZM6.0198 1.50495L1.50495 6.0198V20.8096L6.0198 24.5941H104.733L108.495 20.8317V6.0198L104.733 1.50495H6.0198Z" fill="url(#paint0_linear_214_79)"/>
</g>
<g filter="url(#filter1_i_214_79)">
<path d="M104.733 1.50391L108.495 6.01876V20.8306L104.733 24.593H6.01973L1.50488 20.8083V6.01876L6.01973 1.50391H104.733Z" fill="url(#paint1_linear_214_79)"/>
</g>
<path d="M16.3229 16.1806L13.3341 9.73339H14.9504L16.8828 14.4379L16.3229 16.1806ZM16.3229 16.1806L16.2958 15.079L18.5894 9.7063H19.2395L16.8467 14.9977C16.8346 15.0338 16.8045 15.103 16.7564 15.2054C16.7142 15.3017 16.6661 15.4131 16.6119 15.5395C16.5577 15.6659 16.5095 15.7893 16.4674 15.9097C16.4313 16.0241 16.4102 16.1144 16.4042 16.1806H16.3229ZM18.3185 10.3384C18.3968 10.1578 18.3877 10.0193 18.2914 9.92301C18.1951 9.82067 18.0897 9.7695 17.9754 9.7695H17.8941V9.67921H19.8265V9.7695C19.8265 9.7695 19.8114 9.7695 19.7813 9.7695C19.7572 9.7695 19.7452 9.7695 19.7452 9.7695C19.6128 9.7695 19.4713 9.81465 19.3208 9.90495C19.1763 9.98923 19.0559 10.1337 18.9596 10.3384H18.3185ZM15.2032 10.3384H13.614C13.5177 10.1337 13.3943 9.98923 13.2438 9.90495C13.0993 9.81465 12.9579 9.7695 12.8194 9.7695C12.8194 9.7695 12.8074 9.7695 12.7833 9.7695C12.7592 9.7695 12.7472 9.7695 12.7472 9.7695V9.67921H15.6186V9.7695H15.5373C15.423 9.7695 15.3206 9.82067 15.2303 9.92301C15.1461 10.0193 15.137 10.1578 15.2032 10.3384ZM21.9985 9.67921V16H20.644V9.67921H21.9985ZM20.6711 15.3408V16H19.9487V15.9097C19.9487 15.9097 19.9668 15.9097 20.0029 15.9097C20.045 15.9097 20.0661 15.9097 20.0661 15.9097C20.2226 15.9097 20.355 15.8555 20.4634 15.7472C20.5778 15.6328 20.638 15.4973 20.644 15.3408H20.6711ZM20.6711 10.3384H20.644C20.638 10.1819 20.5778 10.0494 20.4634 9.94107C20.355 9.82669 20.2226 9.7695 20.0661 9.7695C20.0661 9.7695 20.045 9.7695 20.0029 9.7695C19.9668 9.7695 19.9487 9.7695 19.9487 9.7695V9.67921H20.6711V10.3384ZM21.9714 15.3408H21.9985C22.0045 15.4973 22.0617 15.6328 22.17 15.7472C22.2844 15.8555 22.4198 15.9097 22.5764 15.9097C22.5764 15.9097 22.5944 15.9097 22.6305 15.9097C22.6666 15.9097 22.6877 15.9097 22.6937 15.9097V16H21.9714V15.3408ZM21.9714 10.3384V9.67921H22.6937V9.7695C22.6877 9.7695 22.6666 9.7695 22.6305 9.7695C22.5944 9.7695 22.5764 9.7695 22.5764 9.7695C22.4198 9.7695 22.2844 9.82669 22.17 9.94107C22.0617 10.0494 22.0045 10.1819 21.9985 10.3384H21.9714ZM25.4904 9.67921V16H24.136V9.67921H25.4904ZM27.8742 15.6117L28.091 16H25.4633V15.6117H27.8742ZM27.5401 12.6951V13.0744H25.4633V12.6951H27.5401ZM27.9826 9.67921V10.0675H25.4633V9.67921H27.9826ZM28.5334 14.1489L28.118 16H26.3482L26.6733 15.6117C26.9743 15.6117 27.2392 15.5545 27.4679 15.4402C27.6967 15.3198 27.8923 15.1512 28.0548 14.9345C28.2174 14.7118 28.3468 14.4499 28.4431 14.1489H28.5334ZM27.5401 13.0563V13.9232H27.4499V13.8509C27.4499 13.6282 27.3776 13.4446 27.2331 13.3001C27.0887 13.1556 26.9051 13.0804 26.6823 13.0744V13.0563H27.5401ZM27.5401 11.8463V12.7132H26.6823V12.6951C26.9051 12.6891 27.0887 12.6139 27.2331 12.4694C27.3776 12.3189 27.4499 12.1323 27.4499 11.9095V11.8463H27.5401ZM27.9826 10.0404V11.0969H27.8923V10.9885C27.8923 10.7116 27.808 10.4889 27.6395 10.3203C27.4769 10.1518 27.2542 10.0645 26.9713 10.0585V10.0404H27.9826ZM27.9826 9.51667V9.77854L26.881 9.67921C27.0134 9.67921 27.1519 9.67018 27.2963 9.65212C27.4468 9.63406 27.5853 9.61299 27.7117 9.58891C27.8381 9.56483 27.9284 9.54075 27.9826 9.51667ZM24.163 15.3408V16H23.4407V15.9097C23.4407 15.9097 23.4587 15.9097 23.4948 15.9097C23.537 15.9097 23.558 15.9097 23.558 15.9097C23.7146 15.9097 23.847 15.8555 23.9554 15.7472C24.0697 15.6328 24.1299 15.4973 24.136 15.3408H24.163ZM24.163 10.3384H24.136C24.1299 10.1819 24.0697 10.0494 23.9554 9.94107C23.847 9.82669 23.7146 9.7695 23.558 9.7695C23.558 9.7695 23.537 9.7695 23.4948 9.7695C23.4587 9.7695 23.4407 9.7695 23.4407 9.7695V9.67921H24.163V10.3384ZM29.1008 9.73339H30.5726L32.0174 13.8148L31.4756 16.1625L29.1008 9.73339ZM33.6157 9.53473L33.7782 10.4287L31.7736 15.1602C31.7736 15.1602 31.7555 15.2114 31.7194 15.3137C31.6833 15.4161 31.6472 15.5425 31.6111 15.693C31.581 15.8435 31.5629 16 31.5569 16.1625H31.4756L31.2228 15.088L33.5344 9.53473H33.6157ZM33.6157 9.54376L35.6022 13.9322L35.1688 16.1625L32.9926 11.3497L33.6157 9.54376ZM37.1102 9.73339L35.4126 15.1602C35.4126 15.1602 35.3975 15.2144 35.3674 15.3228C35.3373 15.4251 35.3102 15.5545 35.2862 15.711C35.2621 15.8615 35.253 16.012 35.2591 16.1625H35.1688L34.9159 15.2686L36.4961 9.73339H37.1102ZM36.3246 10.3293C36.3727 10.1488 36.3577 10.0103 36.2794 9.91398C36.2012 9.81766 36.1018 9.7695 35.9814 9.7695H35.9002V9.67921H37.7874V9.7695C37.7874 9.7695 37.7753 9.7695 37.7513 9.7695C37.7272 9.7695 37.7151 9.7695 37.7151 9.7695C37.5767 9.7695 37.4262 9.81465 37.2637 9.90495C37.1011 9.98923 36.9867 10.1307 36.9205 10.3293H36.3246ZM30.7984 10.3293H29.3265C29.2483 10.1307 29.1309 9.98923 28.9744 9.90495C28.8179 9.81465 28.6704 9.7695 28.5319 9.7695C28.5319 9.7695 28.5199 9.7695 28.4958 9.7695C28.4717 9.7695 28.4597 9.7695 28.4597 9.7695V9.67921H31.2138V9.7695H31.1325C31.0181 9.7695 30.9158 9.81766 30.8255 9.91398C30.7412 10.0103 30.7322 10.1488 30.7984 10.3293ZM42.2183 9.67921V16H40.8638V9.67921H42.2183ZM44.268 12.6951V13.0744H42.1912V12.6951H44.268ZM44.7105 9.67921V10.0675H42.1912V9.67921H44.7105ZM44.268 13.0563V13.9232H44.1777V13.8509C44.1777 13.6282 44.1055 13.4446 43.961 13.3001C43.8165 13.1556 43.6329 13.0804 43.4102 13.0744V13.0563H44.268ZM44.268 11.8463V12.7132H43.4102V12.6951C43.6329 12.6891 43.8165 12.6139 43.961 12.4694C44.1055 12.3189 44.1777 12.1323 44.1777 11.9095V11.8463H44.268ZM44.7105 10.0404V11.0427H44.6202V10.9524C44.6202 10.6815 44.5389 10.4678 44.3764 10.3113C44.2199 10.1488 44.0062 10.0675 43.7353 10.0675V10.0404H44.7105ZM44.7105 9.51667V9.77854L43.6089 9.67921C43.7413 9.67921 43.8797 9.67018 44.0242 9.65212C44.1747 9.63406 44.3132 9.61299 44.4396 9.58891C44.566 9.56483 44.6563 9.54075 44.7105 9.51667ZM40.8909 15.3408V16H40.1685V15.9097C40.1685 15.9097 40.1866 15.9097 40.2227 15.9097C40.2649 15.9097 40.2859 15.9097 40.2859 15.9097C40.4424 15.9097 40.5749 15.8555 40.6832 15.7472C40.7976 15.6328 40.8578 15.4973 40.8638 15.3408H40.8909ZM40.8909 10.3384H40.8638C40.8578 10.1819 40.7976 10.0494 40.6832 9.94107C40.5749 9.82669 40.4424 9.7695 40.2859 9.7695C40.2859 9.7695 40.2649 9.7695 40.2227 9.7695C40.1866 9.7695 40.1685 9.7695 40.1685 9.7695V9.67921H40.8909V10.3384ZM42.1912 15.3408H42.2183C42.2243 15.4973 42.2815 15.6328 42.3898 15.7472C42.5042 15.8555 42.6397 15.9097 42.7962 15.9097C42.7962 15.9097 42.8142 15.9097 42.8504 15.9097C42.8865 15.9097 42.9075 15.9097 42.9136 15.9097V16H42.1912V15.3408ZM47.4889 9.67921V13.6523C47.4889 14.0797 47.5582 14.4499 47.6966 14.7629C47.8411 15.076 48.0428 15.3168 48.3016 15.4853C48.5665 15.6539 48.8795 15.7381 49.2407 15.7381C49.6079 15.7381 49.924 15.6599 50.1888 15.5034C50.4597 15.3408 50.6674 15.1121 50.8119 14.8171C50.9564 14.5221 51.0286 14.173 51.0286 13.7697V9.67921H51.6787V13.7155C51.6787 14.2091 51.5734 14.6365 51.3627 14.9977C51.158 15.3589 50.86 15.6388 50.4687 15.8375C50.0835 16.0301 49.6169 16.1264 49.0691 16.1264C48.431 16.1264 47.8923 16.0301 47.4528 15.8375C47.0134 15.6388 46.6823 15.3619 46.4596 15.0067C46.2428 14.6455 46.1345 14.2181 46.1345 13.7245V9.67921H47.4889ZM46.1616 9.67921V10.221H46.1345C46.1345 10.0886 46.0863 9.9802 45.99 9.89592C45.8997 9.81164 45.7884 9.7695 45.6559 9.7695C45.6559 9.7695 45.6318 9.7695 45.5837 9.7695C45.5355 9.7695 45.5114 9.7695 45.5114 9.7695V9.67921H46.1616ZM48.112 9.67921V9.7695C48.112 9.7695 48.0879 9.7695 48.0398 9.7695C47.9916 9.7695 47.9675 9.7695 47.9675 9.7695C47.8351 9.7695 47.7207 9.81164 47.6244 9.89592C47.5341 9.9802 47.4889 10.0886 47.4889 10.221H47.4709V9.67921H48.112ZM51.0557 9.67921V10.221H51.0286C51.0286 10.0886 50.9804 9.9802 50.8841 9.89592C50.7938 9.81164 50.6825 9.7695 50.55 9.7695C50.55 9.7695 50.5259 9.7695 50.4778 9.7695C50.4296 9.7695 50.4055 9.7695 50.4055 9.7695V9.67921H51.0557ZM52.3018 9.67921V9.7695C52.3018 9.7695 52.2777 9.7695 52.2295 9.7695C52.1814 9.7695 52.1573 9.7695 52.1573 9.7695C52.0249 9.7695 51.9105 9.81164 51.8142 9.89592C51.7239 9.9802 51.6787 10.0886 51.6787 10.221H51.6607V9.67921H52.3018ZM54.8898 9.67921V16H53.5354V9.67921H54.8898ZM57.2737 15.6117L57.4904 16H54.8628V15.6117H57.2737ZM57.9329 14.1489L57.5175 16H55.7477L56.0727 15.6117C56.3737 15.6117 56.6386 15.5545 56.8674 15.4402C57.0961 15.3198 57.2917 15.1512 57.4543 14.9345C57.6168 14.7118 57.7462 14.4499 57.8426 14.1489H57.9329ZM53.5625 15.3408V16H52.8401V15.9097C52.8401 15.9097 52.8582 15.9097 52.8943 15.9097C52.9364 15.9097 52.9575 15.9097 52.9575 15.9097C53.114 15.9097 53.2464 15.8555 53.3548 15.7472C53.4692 15.6328 53.5294 15.4973 53.5354 15.3408H53.5625ZM53.5625 10.3384H53.5354C53.5294 10.1819 53.4692 10.0494 53.3548 9.94107C53.2464 9.82669 53.114 9.7695 52.9575 9.7695C52.9575 9.7695 52.9364 9.7695 52.8943 9.7695C52.8582 9.7695 52.8401 9.7695 52.8401 9.7695V9.67921H53.5625V10.3384ZM54.8628 10.3384V9.67921H55.5851V9.7695C55.5791 9.7695 55.558 9.7695 55.5219 9.7695C55.4858 9.7695 55.4677 9.7695 55.4677 9.7695C55.3112 9.7695 55.1758 9.82669 55.0614 9.94107C54.9531 10.0494 54.8959 10.1819 54.8898 10.3384H54.8628ZM60.41 9.67921V16H59.0555V9.67921H60.41ZM62.7938 15.6117L63.0105 16H60.3829V15.6117H62.7938ZM63.453 14.1489L63.0376 16H61.2678L61.5928 15.6117C61.8938 15.6117 62.1587 15.5545 62.3875 15.4402C62.6162 15.3198 62.8119 15.1512 62.9744 14.9345C63.1369 14.7118 63.2664 14.4499 63.3627 14.1489H63.453ZM59.0826 15.3408V16H58.3602V15.9097C58.3602 15.9097 58.3783 15.9097 58.4144 15.9097C58.4565 15.9097 58.4776 15.9097 58.4776 15.9097C58.6341 15.9097 58.7666 15.8555 58.8749 15.7472C58.9893 15.6328 59.0495 15.4973 59.0555 15.3408H59.0826ZM59.0826 10.3384H59.0555C59.0495 10.1819 58.9893 10.0494 58.8749 9.94107C58.7666 9.82669 58.6341 9.7695 58.4776 9.7695C58.4776 9.7695 58.4565 9.7695 58.4144 9.7695C58.3783 9.7695 58.3602 9.7695 58.3602 9.7695V9.67921H59.0826V10.3384ZM60.3829 10.3384V9.67921H61.1052V9.7695C61.0992 9.7695 61.0782 9.7695 61.042 9.7695C61.0059 9.7695 60.9879 9.7695 60.9879 9.7695C60.8313 9.7695 60.6959 9.82669 60.5815 9.94107C60.4732 10.0494 60.416 10.1819 60.41 10.3384H60.3829ZM68.1501 9.67921H69.3149C69.5858 9.67921 69.8507 9.70931 70.1096 9.7695C70.3684 9.8297 70.5972 9.92602 70.7958 10.0585C71.0005 10.1909 71.163 10.3655 71.2834 10.5822C71.4038 10.7989 71.464 11.0668 71.464 11.3858C71.464 11.6387 71.4098 11.8915 71.3015 12.1443C71.1991 12.3911 71.0396 12.6048 70.8229 12.7854C70.6062 12.96 70.3263 13.0653 69.9831 13.1015C70.1758 13.1617 70.3503 13.27 70.5069 13.4265C70.6694 13.583 70.8018 13.7396 70.9042 13.8961C70.9102 13.9081 70.9433 13.9623 71.0035 14.0586C71.0697 14.1549 71.148 14.2753 71.2383 14.4198C71.3346 14.5583 71.4339 14.6997 71.5362 14.8442C71.6386 14.9887 71.7319 15.1151 71.8162 15.2234C71.9486 15.386 72.069 15.5184 72.1774 15.6208C72.2857 15.7171 72.4001 15.7893 72.5205 15.8375C72.6409 15.8796 72.7793 15.9037 72.9358 15.9097V16H72.0509C71.7259 16 71.4309 15.9729 71.166 15.9187C70.9012 15.8585 70.6664 15.7592 70.4617 15.6208C70.257 15.4823 70.0795 15.2957 69.929 15.0609C69.8808 14.9887 69.8266 14.8984 69.7664 14.79C69.7122 14.6756 69.6551 14.5552 69.5949 14.4288C69.5347 14.3024 69.4745 14.182 69.4143 14.0676C69.3601 13.9472 69.3119 13.8389 69.2698 13.7426C69.2277 13.6463 69.1976 13.571 69.1795 13.5168C69.1012 13.3242 69.0079 13.1797 68.8996 13.0834C68.7972 12.9871 68.6859 12.9299 68.5655 12.9118V12.8215C68.5835 12.8215 68.6197 12.8215 68.6738 12.8215C68.728 12.8215 68.7852 12.8215 68.8454 12.8215C69.0079 12.8215 69.1644 12.7884 69.3149 12.7222C69.4715 12.656 69.6099 12.5476 69.7303 12.3971C69.8507 12.2467 69.935 12.039 69.9831 11.7741C69.9952 11.7199 70.0042 11.6567 70.0102 11.5845C70.0223 11.5122 70.0253 11.431 70.0193 11.3407C70.0012 10.9072 69.8928 10.5912 69.6942 10.3926C69.4955 10.1879 69.2487 10.0825 68.9537 10.0765C68.8695 10.0705 68.7762 10.0705 68.6738 10.0765C68.5775 10.0765 68.4872 10.0765 68.4029 10.0765C68.3247 10.0765 68.2705 10.0765 68.2404 10.0765C68.2404 10.0705 68.2314 10.0374 68.2133 9.97719C68.2013 9.91097 68.1862 9.84475 68.1682 9.77854C68.1561 9.71232 68.1501 9.67921 68.1501 9.67921ZM68.2675 9.67921V16H66.913V9.67921H68.2675ZM66.9401 15.3408V16H66.2177V15.9097C66.2238 15.9097 66.2418 15.9097 66.2719 15.9097C66.308 15.9097 66.3291 15.9097 66.3351 15.9097C66.4917 15.9097 66.6241 15.8555 66.7324 15.7472C66.8468 15.6328 66.907 15.4973 66.913 15.3408H66.9401ZM66.9401 10.3384H66.913C66.907 10.1819 66.8468 10.0494 66.7324 9.94107C66.6241 9.82669 66.4917 9.7695 66.3351 9.7695C66.3291 9.7695 66.308 9.7695 66.2719 9.7695C66.2418 9.7695 66.2238 9.7695 66.2177 9.7695V9.67921H66.9401V10.3384ZM68.2404 15.3408H68.2675C68.2675 15.4973 68.3247 15.6328 68.4391 15.7472C68.5534 15.8555 68.6889 15.9097 68.8454 15.9097C68.8574 15.9097 68.8785 15.9097 68.9086 15.9097C68.9387 15.9097 68.9537 15.9097 68.9537 15.9097V16H68.2404V15.3408ZM74.5075 9.67921V13.6523C74.5075 14.0797 74.5767 14.4499 74.7152 14.7629C74.8597 15.076 75.0613 15.3168 75.3202 15.4853C75.5851 15.6539 75.8981 15.7381 76.2593 15.7381C76.6265 15.7381 76.9425 15.6599 77.2074 15.5034C77.4783 15.3408 77.686 15.1121 77.8304 14.8171C77.9749 14.5221 78.0472 14.173 78.0472 13.7697V9.67921H78.6973V13.7155C78.6973 14.2091 78.5919 14.6365 78.3813 14.9977C78.1766 15.3589 77.8786 15.6388 77.4873 15.8375C77.102 16.0301 76.6355 16.1264 76.0877 16.1264C75.4496 16.1264 74.9108 16.0301 74.4714 15.8375C74.0319 15.6388 73.7009 15.3619 73.4781 15.0067C73.2614 14.6455 73.1531 14.2181 73.1531 13.7245V9.67921H74.5075ZM73.1801 9.67921V10.221H73.1531C73.1531 10.0886 73.1049 9.9802 73.0086 9.89592C72.9183 9.81164 72.8069 9.7695 72.6745 9.7695C72.6745 9.7695 72.6504 9.7695 72.6022 9.7695C72.5541 9.7695 72.53 9.7695 72.53 9.7695V9.67921H73.1801ZM75.1306 9.67921V9.7695C75.1306 9.7695 75.1065 9.7695 75.0583 9.7695C75.0102 9.7695 74.9861 9.7695 74.9861 9.7695C74.8536 9.7695 74.7393 9.81164 74.643 9.89592C74.5527 9.9802 74.5075 10.0886 74.5075 10.221H74.4894V9.67921H75.1306ZM78.0742 9.67921V10.221H78.0472C78.0472 10.0886 77.999 9.9802 77.9027 9.89592C77.8124 9.81164 77.701 9.7695 77.5686 9.7695C77.5686 9.7695 77.5445 9.7695 77.4963 9.7695C77.4482 9.7695 77.4241 9.7695 77.4241 9.7695V9.67921H78.0742ZM79.3203 9.67921V9.7695C79.3203 9.7695 79.2963 9.7695 79.2481 9.7695C79.1999 9.7695 79.1759 9.7695 79.1759 9.7695C79.0434 9.7695 78.9291 9.81164 78.8327 9.89592C78.7424 9.9802 78.6973 10.0886 78.6973 10.221H78.6792V9.67921H79.3203ZM81.9084 9.67921V16H80.554V9.67921H81.9084ZM84.2922 15.6117L84.509 16H81.8813V15.6117H84.2922ZM84.9514 14.1489L84.536 16H82.7662L83.0913 15.6117C83.3923 15.6117 83.6572 15.5545 83.8859 15.4402C84.1147 15.3198 84.3103 15.1512 84.4728 14.9345C84.6354 14.7118 84.7648 14.4499 84.8611 14.1489H84.9514ZM80.581 15.3408V16H79.8587V15.9097C79.8587 15.9097 79.8767 15.9097 79.9128 15.9097C79.955 15.9097 79.976 15.9097 79.976 15.9097C80.1326 15.9097 80.265 15.8555 80.3734 15.7472C80.4877 15.6328 80.5479 15.4973 80.554 15.3408H80.581ZM80.581 10.3384H80.554C80.5479 10.1819 80.4877 10.0494 80.3734 9.94107C80.265 9.82669 80.1326 9.7695 79.976 9.7695C79.976 9.7695 79.955 9.7695 79.9128 9.7695C79.8767 9.7695 79.8587 9.7695 79.8587 9.7695V9.67921H80.581V10.3384ZM81.8813 10.3384V9.67921H82.6037V9.7695C82.5977 9.7695 82.5766 9.7695 82.5405 9.7695C82.5044 9.7695 82.4863 9.7695 82.4863 9.7695C82.3298 9.7695 82.1943 9.82669 82.08 9.94107C81.9716 10.0494 81.9144 10.1819 81.9084 10.3384H81.8813ZM87.4285 9.67921V16H86.0741V9.67921H87.4285ZM89.8124 15.6117L90.0291 16H87.4014V15.6117H89.8124ZM89.4783 12.6951V13.0744H87.4014V12.6951H89.4783ZM89.9207 9.67921V10.0675H87.4014V9.67921H89.9207ZM90.4715 14.1489L90.0562 16H88.2863L88.6114 15.6117C88.9124 15.6117 89.1773 15.5545 89.406 15.4402C89.6348 15.3198 89.8304 15.1512 89.993 14.9345C90.1555 14.7118 90.2849 14.4499 90.3812 14.1489H90.4715ZM89.4783 13.0563V13.9232H89.388V13.8509C89.388 13.6282 89.3157 13.4446 89.1712 13.3001C89.0268 13.1556 88.8432 13.0804 88.6204 13.0744V13.0563H89.4783ZM89.4783 11.8463V12.7132H88.6204V12.6951C88.8432 12.6891 89.0268 12.6139 89.1712 12.4694C89.3157 12.3189 89.388 12.1323 89.388 11.9095V11.8463H89.4783ZM89.9207 10.0404V11.0969H89.8304V10.9885C89.8304 10.7116 89.7461 10.4889 89.5776 10.3203C89.4151 10.1518 89.1923 10.0645 88.9094 10.0585V10.0404H89.9207ZM89.9207 9.51667V9.77854L88.8191 9.67921C88.9515 9.67921 89.09 9.67018 89.2345 9.65212C89.385 9.63406 89.5234 9.61299 89.6498 9.58891C89.7762 9.56483 89.8665 9.54075 89.9207 9.51667ZM86.1012 15.3408V16H85.3788V15.9097C85.3788 15.9097 85.3968 15.9097 85.433 15.9097C85.4751 15.9097 85.4962 15.9097 85.4962 15.9097C85.6527 15.9097 85.7851 15.8555 85.8935 15.7472C86.0078 15.6328 86.068 15.4973 86.0741 15.3408H86.1012ZM86.1012 10.3384H86.0741C86.068 10.1819 86.0078 10.0494 85.8935 9.94107C85.7851 9.82669 85.6527 9.7695 85.4962 9.7695C85.4962 9.7695 85.4751 9.7695 85.433 9.7695C85.3968 9.7695 85.3788 9.7695 85.3788 9.7695V9.67921H86.1012V10.3384ZM93.206 9.55279C93.3264 9.55279 93.4739 9.55881 93.6485 9.57085C93.8291 9.58289 94.0127 9.60095 94.1993 9.62503C94.3919 9.64309 94.5575 9.66416 94.6959 9.68824C94.8404 9.7063 94.9397 9.72737 94.9939 9.75145L94.8856 10.9705H94.7953C94.7953 10.6574 94.6779 10.4076 94.4431 10.221C94.2144 10.0284 93.9074 9.93204 93.5221 9.93204C93.1729 9.93204 92.89 10.0163 92.6733 10.1849C92.4626 10.3534 92.3512 10.5581 92.3392 10.7989C92.3332 10.9795 92.3904 11.136 92.5108 11.2684C92.6312 11.4009 92.7847 11.5243 92.9713 11.6387L94.6959 12.7583C94.9729 12.9149 95.1805 13.1195 95.319 13.3724C95.4635 13.6252 95.5267 13.9202 95.5086 14.2573C95.4785 14.8472 95.2528 15.3077 94.8314 15.6388C94.41 15.9639 93.8381 16.1264 93.1157 16.1264C92.8509 16.1264 92.592 16.1023 92.3392 16.0542C92.0924 16.012 91.8727 15.9518 91.68 15.8736C91.4874 15.7893 91.3339 15.69 91.2195 15.5756C91.1714 15.4432 91.1503 15.2836 91.1563 15.097C91.1623 14.9104 91.1894 14.7208 91.2376 14.5282C91.2917 14.3355 91.358 14.176 91.4362 14.0496H91.5175C91.4934 14.3566 91.5476 14.6425 91.68 14.9074C91.8185 15.1663 92.0171 15.3739 92.276 15.5305C92.5409 15.681 92.8539 15.7532 93.2151 15.7472C93.6124 15.7411 93.9194 15.6418 94.1361 15.4492C94.3528 15.2505 94.4612 15.0128 94.4612 14.7358C94.4612 14.5492 94.404 14.3807 94.2896 14.2302C94.1813 14.0797 94.0007 13.9352 93.7478 13.7968L92.1676 12.7493C91.8486 12.5687 91.6168 12.337 91.4723 12.054C91.3279 11.7711 91.2707 11.4641 91.3008 11.133C91.3309 10.82 91.4242 10.5461 91.5807 10.3113C91.7372 10.0705 91.9509 9.88388 92.2218 9.75145C92.4987 9.61901 92.8268 9.55279 93.206 9.55279ZM95.003 9.64309L94.9849 9.83271H93.9194V9.64309H95.003Z" fill="white"/>
<defs>
<filter id="filter0_ii_214_79" x="0" y="-0.376238" width="110" height="27.2277" filterUnits="userSpaceOnUse" color-interpolation-filters="sRGB">
<feFlood flood-opacity="0" result="BackgroundImageFix"/>
<feBlend mode="normal" in="SourceGraphic" in2="BackgroundImageFix" result="shape"/>
<feColorMatrix in="SourceAlpha" type="matrix" values="0 0 0 0 0 0 0 0 0 0 0 0 0 0 0 0 0 0 127 0" result="hardAlpha"/>
<feOffset dy="0.752475"/>
<feGaussianBlur stdDeviation="0.376238"/>
<feComposite in2="hardAlpha" operator="arithmetic" k2="-1" k3="1"/>
<feColorMatrix type="matrix" values="0 0 0 0 0.819608 0 0 0 0 0.733333 0 0 0 0 0.54902 0 0 0 1 0"/>
<feBlend mode="normal" in2="shape" result="effect1_innerShadow_214_79"/>
<feColorMatrix in="SourceAlpha" type="matrix" values="0 0 0 0 0 0 0 0 0 0 0 0 0 0 0 0 0 0 127 0" result="hardAlpha"/>
<feOffset dy="-0.376238"/>
<feGaussianBlur stdDeviation="0.188119"/>
<feComposite in2="hardAlpha" operator="arithmetic" k2="-1" k3="1"/>
<feColorMatrix type="matrix" values="0 0 0 0 0.368627 0 0 0 0 0.203922 0 0 0 0 0.0470588 0 0 0 1 0"/>
<feBlend mode="normal" in2="effect1_innerShadow_214_79" result="effect2_innerShadow_214_79"/>
</filter>
<filter id="filter1_i_214_79" x="1.50488" y="1.50391" width="106.99" height="23.0891" filterUnits="userSpaceOnUse" color-interpolation-filters="sRGB">
<feFlood flood-opacity="0" result="BackgroundImageFix"/>
<feBlend mode="normal" in="SourceGraphic" in2="BackgroundImageFix" result="shape"/>
<feColorMatrix in="SourceAlpha" type="matrix" values="0 0 0 0 0 0 0 0 0 0 0 0 0 0 0 0 0 0 127 0" result="hardAlpha"/>
<feOffset/>
<feGaussianBlur stdDeviation="0.639604"/>
<feComposite in2="hardAlpha" operator="arithmetic" k2="-1" k3="1"/>
<feColorMatrix type="matrix" values="0 0 0 0 0 0 0 0 0 0 0 0 0 0 0 0 0 0 1 0"/>
<feBlend mode="normal" in2="shape" result="effect1_innerShadow_214_79"/>
</filter>
<linearGradient id="paint0_linear_214_79" x1="38" y1="0" x2="38" y2="30.099" gradientUnits="userSpaceOnUse">
<stop stop-color="#D6B475"/>
<stop offset="1" stop-color="#9D5E25"/>
</linearGradient>
<linearGradient id="paint1_linear_214_79" x1="37.8113" y1="1.50391" x2="37.8113" y2="28.9208" gradientUnits="userSpaceOnUse">
<stop stop-color="#1B2C20"/>
<stop offset="1" stop-color="#0E1211"/>
</linearGradient>
</defs>
</svg>
